<svg width="45" height="45" viewBox="0 0 45 45" fill="none" xmlns="http://www.w3.org/2000/svg">
<g clip-path="url(#clip0_6_1026)">
<path d="M24.9356 5.9025L41.1244 33.9412C41.3712 34.3688 41.5012 34.8538 41.5012 35.3475C41.5012 35.8412 41.3713 36.3262 41.1244 36.7537C40.8776 37.1813 40.5225 37.5363 40.095 37.7832C39.6675 38.03 39.1825 38.16 38.6888 38.16H6.31127C5.81758 38.16 5.33259 38.03 4.90504 37.7832C4.4775 37.5363 4.12247 37.1813 3.87563 36.7537C3.62879 36.3262 3.49884 35.8412 3.49884 35.3475C3.49884 34.8538 3.6288 34.3688 3.87564 33.9412L20.0644 5.9025C21.1463 4.0275 23.8519 4.0275 24.9356 5.9025ZM22.5 28.125C22.0027 28.125 21.5258 28.3225 21.1742 28.6742C20.8226 29.0258 20.625 29.5027 20.625 30C20.625 30.4973 20.8226 30.9742 21.1742 31.3258C21.5258 31.6775 22.0027 31.875 22.5 31.875C22.9973 31.875 23.4742 31.6775 23.8258 31.3258C24.1775 30.9742 24.375 30.4973 24.375 30C24.375 29.5027 24.1775 29.0258 23.8258 28.6742C23.4742 28.3225 22.9973 28.125 22.5 28.125ZM22.5 15C22.0408 15.0001 21.5975 15.1687 21.2543 15.4738C20.9111 15.779 20.6919 16.1995 20.6381 16.6556L20.625 16.875V24.375C20.6255 24.8529 20.8085 25.3126 21.1366 25.6601C21.4647 26.0076 21.9131 26.2167 22.3901 26.2447C22.8672 26.2727 23.337 26.1175 23.7035 25.8107C24.0699 25.504 24.3055 25.0689 24.3619 24.5944L24.375 24.375V16.875C24.375 16.3777 24.1775 15.9008 23.8258 15.5492C23.4742 15.1975 22.9973 15 22.5 15Z" fill="#E40613"/>
</g>
<defs>
<clipPath id="clip0_6_1026">
<rect width="45" height="45" fill="white"/>
</clipPath>
</defs>
</svg>
