<svg width="32" height="22" viewBox="0 0 32 22" fill="none" xmlns="http://www.w3.org/2000/svg">
<path d="M31.8458 10.5697C31.7994 10.4648 30.6744 7.96922 28.1736 5.46836C24.8413 2.13609 20.6325 0.375 16 0.375C11.3675 0.375 7.15866 2.13609 3.82639 5.46836C1.32553 7.96922 0.1953 10.4688 0.154128 10.5697C0.0937157 10.7056 0.0625 10.8526 0.0625 11.0013C0.0625 11.15 0.0937157 11.2971 0.154128 11.433C0.200612 11.5379 1.32553 14.0321 3.82639 16.533C7.15866 19.8639 11.3675 21.625 16 21.625C20.6325 21.625 24.8413 19.8639 28.1736 16.533C30.6744 14.0321 31.7994 11.5379 31.8458 11.433C31.9063 11.2971 31.9375 11.15 31.9375 11.0013C31.9375 10.8526 31.9063 10.7056 31.8458 10.5697ZM16 19.5C11.912 19.5 8.34069 18.0138 5.38428 15.084C4.17128 13.8776 3.13925 12.502 2.3203 11C3.13894 9.49778 4.17099 8.12215 5.38428 6.91602C8.34069 3.98617 11.912 2.5 16 2.5C20.088 2.5 23.6593 3.98617 26.6157 6.91602C27.831 8.12195 28.8653 9.49756 29.6863 11C28.7287 12.7877 24.5571 19.5 16 19.5ZM16 4.625C14.7391 4.625 13.5066 4.99889 12.4582 5.69938C11.4099 6.39988 10.5928 7.39551 10.1103 8.56039C9.62775 9.72527 9.5015 11.0071 9.74748 12.2437C9.99346 13.4803 10.6006 14.6162 11.4922 15.5078C12.3837 16.3994 13.5197 17.0065 14.7563 17.2525C15.9929 17.4985 17.2747 17.3722 18.4396 16.8897C19.6045 16.4072 20.6001 15.5901 21.3006 14.5418C22.0011 13.4934 22.375 12.2609 22.375 11C22.3732 9.30978 21.701 7.6893 20.5059 6.49414C19.3107 5.29897 17.6902 4.62676 16 4.625ZM16 15.25C15.1594 15.25 14.3377 15.0007 13.6388 14.5337C12.9399 14.0667 12.3952 13.403 12.0735 12.6264C11.7518 11.8498 11.6677 10.9953 11.8316 10.1709C11.9956 9.34645 12.4004 8.58917 12.9948 7.9948C13.5892 7.40042 14.3464 6.99565 15.1709 6.83166C15.9953 6.66768 16.8498 6.75184 17.6264 7.07351C18.403 7.39518 19.0667 7.93992 19.5337 8.63883C20.0007 9.33774 20.25 10.1594 20.25 11C20.25 12.1272 19.8022 13.2082 19.0052 14.0052C18.2082 14.8022 17.1272 15.25 16 15.25Z" fill="#8F8F8F"/>
</svg>
