<svg width="49" height="45" viewBox="0 0 49 45" fill="none" xmlns="http://www.w3.org/2000/svg">
<path d="M47.7941 25.0294V13.6471C47.7941 10.2929 46.4617 7.07602 44.0899 4.70424C41.7181 2.33245 38.5013 1 35.1471 1H13.6471C10.2929 1 7.07602 2.33245 4.70424 4.70424C2.33245 7.07602 1 10.2929 1 13.6471V31.3529C1 33.0138 1.32713 34.6584 1.9627 36.1928C2.59827 37.7272 3.52985 39.1214 4.70424 40.2958C7.07602 42.6675 10.2929 44 13.6471 44H29.4812" stroke="black" stroke-width="1.5" stroke-linecap="round" stroke-linejoin="round"/>
<path d="M1.65771 35.147L8.5883 27.0529C9.49849 26.1489 10.6931 25.5871 11.9698 25.4627C13.2466 25.3382 14.5272 25.6587 15.5948 26.3699C16.6624 27.0811 17.943 27.4016 19.2197 27.2772C20.4965 27.1527 21.6911 26.591 22.6012 25.687L28.4948 19.7935C30.1882 18.0943 32.4303 17.0521 34.8209 16.8529C37.2116 16.6537 39.5952 17.3104 41.5465 18.7058L47.7942 23.537M14.3048 17.8711C14.8562 17.8678 15.4015 17.7559 15.9097 17.5418C16.4178 17.3277 16.8788 17.0157 17.2664 16.6234C17.6539 16.2312 17.9604 15.7664 18.1684 15.2557C18.3763 14.745 18.4816 14.1984 18.4783 13.647C18.475 13.0956 18.3631 12.5503 18.149 12.0421C17.9349 11.5339 17.6229 11.0729 17.2306 10.6854C16.8384 10.2978 16.3736 9.99134 15.8629 9.7834C15.3522 9.57546 14.8056 9.47014 14.2542 9.47346C13.1406 9.48017 12.0753 9.92898 11.2926 10.7212C10.5099 11.5133 10.0739 12.584 10.0807 13.6976C10.0874 14.8112 10.5362 15.8765 11.3283 16.6592C12.1205 17.4419 13.1912 17.8778 14.3048 17.8711Z" stroke="black" stroke-width="1.5" stroke-linecap="round" stroke-linejoin="round"/>
<path d="M41.3618 30.0884V42.7354" stroke="black" stroke-width="1.5" stroke-miterlimit="10" stroke-linecap="round"/>
<path d="M47.1619 35.4127L42.1865 30.4373C42.0788 30.3281 41.9504 30.2414 41.8088 30.1822C41.6673 30.123 41.5154 30.0925 41.362 30.0925C41.2085 30.0925 41.0566 30.123 40.9151 30.1822C40.7735 30.2414 40.6451 30.3281 40.5374 30.4373L35.562 35.4127" stroke="black" stroke-width="1.5" stroke-linecap="round" stroke-linejoin="round"/>
</svg>
