<svg width="41" height="41" viewBox="0 0 41 41" fill="none" xmlns="http://www.w3.org/2000/svg">
<path d="M20.5 1.75C10.1444 1.75 1.75 10.1444 1.75 20.5C1.75 30.8556 10.1444 39.25 20.5 39.25C30.8556 39.25 39.25 30.8556 39.25 20.5C39.25 10.1444 30.8556 1.75 20.5 1.75Z" stroke="white" stroke-width="2" stroke-linecap="round" stroke-linejoin="round"/>
<path d="M6.00806 32.3988C6.00806 32.3988 10.1874 27.0625 20.4999 27.0625C30.8124 27.0625 34.9937 32.3988 34.9937 32.3988M20.4999 20.5C21.9918 20.5 23.4225 19.9074 24.4774 18.8525C25.5323 17.7976 26.1249 16.3668 26.1249 14.875C26.1249 13.3832 25.5323 11.9524 24.4774 10.8975C23.4225 9.84263 21.9918 9.25 20.4999 9.25C19.0081 9.25 17.5773 9.84263 16.5225 10.8975C15.4676 11.9524 14.8749 13.3832 14.8749 14.875C14.8749 16.3668 15.4676 17.7976 16.5225 18.8525C17.5773 19.9074 19.0081 20.5 20.4999 20.5Z" stroke="white" stroke-width="2" stroke-linecap="round" stroke-linejoin="round"/>
</svg>
