<svg width="15" height="20" viewBox="0 0 15 20" fill="none" xmlns="http://www.w3.org/2000/svg">
<path d="M-0.000104948 0.999963L-0.000105735 19C0.000465508 19.1822 0.0507289 19.3608 0.145272 19.5166C0.239816 19.6724 0.375059 19.7995 0.536447 19.8842C0.697834 19.9688 0.879254 20.0078 1.06118 19.9971C1.2431 19.9863 1.41864 19.9261 1.56889 19.823L14.5689 10.823C15.1079 10.45 15.1079 9.55196 14.5689 9.17796L1.5689 0.177963C1.41895 0.0737876 1.24333 0.0126969 1.0611 0.00132796C0.878874 -0.010041 0.697017 0.0287466 0.535288 0.113477C0.373559 0.198207 0.238141 0.325639 0.143751 0.481927C0.0493612 0.638215 -0.00039295 0.817383 -0.000104948 0.999963Z" fill="black"/>
</svg>
