<svg width="13" height="24" viewBox="0 0 13 24" fill="none" xmlns="http://www.w3.org/2000/svg">
<path d="M1.62499 10.2917L11.375 10.2917C11.4737 10.2914 11.5705 10.2641 11.6549 10.2129C11.7392 10.1617 11.8081 10.0885 11.8539 10.001C11.8998 9.91361 11.9209 9.81535 11.9151 9.7168C11.9092 9.61826 11.8766 9.52318 11.8208 9.44179L6.94578 2.40012C6.74373 2.10817 6.25732 2.10817 6.05474 2.40012L1.17974 9.44179C1.12331 9.52301 1.09022 9.61814 1.08406 9.71685C1.0779 9.81555 1.09891 9.91406 1.14481 10.0017C1.1907 10.0893 1.25973 10.1626 1.34438 10.2137C1.42904 10.2649 1.52609 10.2918 1.62499 10.2917Z" fill="#9D9D9D"/>
<path d="M11.375 13.7083L1.62502 13.7083C1.5263 13.7086 1.42954 13.7359 1.34515 13.7871C1.26076 13.8383 1.19193 13.9115 1.14608 13.999C1.10022 14.0864 1.07908 14.1847 1.08492 14.2832C1.09076 14.3817 1.12336 14.4768 1.17922 14.5582L6.05422 21.5999C6.25627 21.8918 6.74268 21.8918 6.94526 21.5999L11.8203 14.5582C11.8767 14.477 11.9098 14.3819 11.9159 14.2832C11.9221 14.1844 11.9011 14.0859 11.8552 13.9983C11.8093 13.9107 11.7403 13.8374 11.6556 13.7863C11.571 13.7351 11.4739 13.7082 11.375 13.7083Z" fill="#9D9D9D"/>
</svg>
