<svg width="246" height="46" viewBox="0 0 246 46" fill="none" xmlns="http://www.w3.org/2000/svg">
<path d="M75.1309 9.40625V35H70.7539V9.40625H75.1309ZM83.1641 9.40625V12.9219H62.791V9.40625H83.1641ZM94.4844 31.1855V22.1152C94.4844 21.4355 94.3613 20.8496 94.1152 20.3574C93.8691 19.8652 93.4941 19.4844 92.9902 19.2148C92.498 18.9453 91.877 18.8105 91.127 18.8105C90.4355 18.8105 89.8379 18.9277 89.334 19.1621C88.8301 19.3965 88.4375 19.7129 88.1562 20.1113C87.875 20.5098 87.7344 20.9609 87.7344 21.4648H83.5156C83.5156 20.7148 83.6973 19.9883 84.0605 19.2852C84.4238 18.582 84.9512 17.9551 85.6426 17.4043C86.334 16.8535 87.1602 16.4199 88.1211 16.1035C89.082 15.7871 90.1602 15.6289 91.3555 15.6289C92.7852 15.6289 94.0508 15.8691 95.1523 16.3496C96.2656 16.8301 97.1387 17.5566 97.7715 18.5293C98.416 19.4902 98.7383 20.6973 98.7383 22.1504V30.6055C98.7383 31.4727 98.7969 32.252 98.9141 32.9434C99.043 33.623 99.2246 34.2148 99.459 34.7188V35H95.1172C94.918 34.543 94.7598 33.9629 94.6426 33.2598C94.5371 32.5449 94.4844 31.8535 94.4844 31.1855ZM95.0996 23.4336L95.1348 26.0527H92.0938C91.3086 26.0527 90.6172 26.1289 90.0195 26.2812C89.4219 26.4219 88.9238 26.6328 88.5254 26.9141C88.127 27.1953 87.8281 27.5352 87.6289 27.9336C87.4297 28.332 87.3301 28.7832 87.3301 29.2871C87.3301 29.791 87.4473 30.2539 87.6816 30.6758C87.916 31.0859 88.2559 31.4082 88.7012 31.6426C89.1582 31.877 89.709 31.9941 90.3535 31.9941C91.2207 31.9941 91.9766 31.8184 92.6211 31.4668C93.2773 31.1035 93.793 30.6641 94.168 30.1484C94.543 29.6211 94.7422 29.123 94.7656 28.6543L96.1367 30.5352C95.9961 31.0156 95.7559 31.5312 95.416 32.082C95.0762 32.6328 94.6309 33.1602 94.0801 33.6641C93.541 34.1562 92.8906 34.5605 92.1289 34.877C91.3789 35.1934 90.5117 35.3516 89.5273 35.3516C88.2852 35.3516 87.1777 35.1055 86.2051 34.6133C85.2324 34.1094 84.4707 33.4355 83.9199 32.5918C83.3691 31.7363 83.0938 30.7695 83.0938 29.6914C83.0938 28.6836 83.2812 27.793 83.6562 27.0195C84.043 26.2344 84.6055 25.5781 85.3438 25.0508C86.0938 24.5234 87.0078 24.125 88.0859 23.8555C89.1641 23.5742 90.3945 23.4336 91.7773 23.4336H95.0996ZM103.186 8H107.422V30.9395L107.018 35H103.186V8ZM119.832 25.3145V25.6836C119.832 27.0898 119.674 28.3848 119.357 29.5684C119.053 30.7402 118.584 31.7598 117.951 32.627C117.33 33.4941 116.557 34.168 115.631 34.6484C114.717 35.1172 113.656 35.3516 112.449 35.3516C111.266 35.3516 110.234 35.1289 109.355 34.6836C108.477 34.2383 107.738 33.6055 107.141 32.7852C106.555 31.9648 106.08 30.9863 105.717 29.8496C105.354 28.7129 105.096 27.459 104.943 26.0879V24.9102C105.096 23.5273 105.354 22.2734 105.717 21.1484C106.08 20.0117 106.555 19.0332 107.141 18.2129C107.738 17.3809 108.471 16.7422 109.338 16.2969C110.217 15.8516 111.242 15.6289 112.414 15.6289C113.633 15.6289 114.705 15.8633 115.631 16.332C116.568 16.8008 117.348 17.4688 117.969 18.3359C118.59 19.1914 119.053 20.2109 119.357 21.3945C119.674 22.5781 119.832 23.8848 119.832 25.3145ZM115.596 25.6836V25.3145C115.596 24.459 115.525 23.6562 115.385 22.9062C115.244 22.1445 115.01 21.4766 114.682 20.9023C114.365 20.3281 113.932 19.877 113.381 19.5488C112.842 19.209 112.168 19.0391 111.359 19.0391C110.609 19.0391 109.965 19.168 109.426 19.4258C108.887 19.6836 108.436 20.0352 108.072 20.4805C107.709 20.9258 107.422 21.4414 107.211 22.0273C107.012 22.6133 106.877 23.2461 106.807 23.9258V27.1074C106.912 27.9863 107.135 28.7949 107.475 29.5332C107.826 30.2598 108.318 30.8457 108.951 31.291C109.584 31.7246 110.398 31.9414 111.395 31.9414C112.18 31.9414 112.842 31.7832 113.381 31.4668C113.92 31.1504 114.348 30.7109 114.664 30.1484C114.992 29.5742 115.227 28.9062 115.367 28.1445C115.52 27.3828 115.596 26.5625 115.596 25.6836ZM127.953 8V35H123.699V8H127.953ZM140.979 35.3516C139.572 35.3516 138.301 35.123 137.164 34.666C136.039 34.1973 135.078 33.5469 134.281 32.7148C133.496 31.8828 132.893 30.9043 132.471 29.7793C132.049 28.6543 131.838 27.4414 131.838 26.1406V25.4375C131.838 23.9492 132.055 22.6016 132.488 21.3945C132.922 20.1875 133.525 19.1562 134.299 18.3008C135.072 17.4336 135.986 16.7715 137.041 16.3145C138.096 15.8574 139.238 15.6289 140.469 15.6289C141.828 15.6289 143.018 15.8574 144.037 16.3145C145.057 16.7715 145.9 17.416 146.568 18.248C147.248 19.0684 147.752 20.0469 148.08 21.1836C148.42 22.3203 148.59 23.5742 148.59 24.9453V26.7559H133.895V23.7148H144.406V23.3809C144.383 22.6191 144.23 21.9043 143.949 21.2363C143.68 20.5684 143.264 20.0293 142.701 19.6191C142.139 19.209 141.389 19.0039 140.451 19.0039C139.748 19.0039 139.121 19.1562 138.57 19.4609C138.031 19.7539 137.58 20.1816 137.217 20.7441C136.854 21.3066 136.572 21.9863 136.373 22.7832C136.186 23.5684 136.092 24.4531 136.092 25.4375V26.1406C136.092 26.9727 136.203 27.7461 136.426 28.4609C136.66 29.1641 137 29.7793 137.445 30.3066C137.891 30.834 138.43 31.25 139.062 31.5547C139.695 31.8477 140.416 31.9941 141.225 31.9941C142.244 31.9941 143.152 31.7891 143.949 31.3789C144.746 30.9688 145.438 30.3887 146.023 29.6387L148.256 31.8008C147.846 32.3984 147.312 32.9727 146.656 33.5234C146 34.0625 145.197 34.502 144.248 34.8418C143.311 35.1816 142.221 35.3516 140.979 35.3516ZM165.781 28.4082C165.781 27.8809 165.699 27.4121 165.535 27.002C165.383 26.5918 165.107 26.2168 164.709 25.877C164.311 25.5371 163.748 25.209 163.021 24.8926C162.307 24.5645 161.393 24.2305 160.279 23.8906C159.061 23.5156 157.936 23.0996 156.904 22.6426C155.885 22.1738 154.994 21.6348 154.232 21.0254C153.471 20.4043 152.879 19.6953 152.457 18.8984C152.035 18.0898 151.824 17.1582 151.824 16.1035C151.824 15.0605 152.041 14.1113 152.475 13.2559C152.92 12.4004 153.547 11.6621 154.355 11.041C155.176 10.4082 156.143 9.92187 157.256 9.58203C158.369 9.23047 159.6 9.05469 160.947 9.05469C162.846 9.05469 164.48 9.40625 165.852 10.1094C167.234 10.8125 168.295 11.7559 169.033 12.9395C169.783 14.123 170.158 15.4297 170.158 16.8594H165.781C165.781 16.0156 165.6 15.2715 165.236 14.627C164.885 13.9707 164.346 13.4551 163.619 13.0801C162.904 12.7051 161.996 12.5176 160.895 12.5176C159.852 12.5176 158.984 12.6758 158.293 12.9922C157.602 13.3086 157.086 13.7363 156.746 14.2754C156.406 14.8145 156.236 15.4238 156.236 16.1035C156.236 16.584 156.348 17.0234 156.57 17.4219C156.793 17.8086 157.133 18.1719 157.59 18.5117C158.047 18.8398 158.621 19.1504 159.312 19.4434C160.004 19.7363 160.818 20.0176 161.756 20.2871C163.174 20.709 164.41 21.1777 165.465 21.6934C166.52 22.1973 167.398 22.7715 168.102 23.416C168.805 24.0605 169.332 24.793 169.684 25.6133C170.035 26.4219 170.211 27.3418 170.211 28.373C170.211 29.4512 169.994 30.4238 169.561 31.291C169.127 32.1465 168.506 32.8789 167.697 33.4883C166.9 34.0859 165.939 34.5488 164.814 34.877C163.701 35.1934 162.459 35.3516 161.088 35.3516C159.857 35.3516 158.645 35.1875 157.449 34.8594C156.266 34.5312 155.188 34.0332 154.215 33.3652C153.242 32.6855 152.469 31.8418 151.895 30.834C151.32 29.8145 151.033 28.625 151.033 27.2656H155.445C155.445 28.0977 155.586 28.8066 155.867 29.3926C156.16 29.9785 156.564 30.459 157.08 30.834C157.596 31.1973 158.193 31.4668 158.873 31.6426C159.564 31.8184 160.303 31.9062 161.088 31.9062C162.119 31.9062 162.98 31.7598 163.672 31.4668C164.375 31.1738 164.902 30.7637 165.254 30.2363C165.605 29.709 165.781 29.0996 165.781 28.4082ZM177.945 19.6367V42.3125H173.709V15.9805H177.611L177.945 19.6367ZM190.338 25.3145V25.6836C190.338 27.0664 190.174 28.3496 189.846 29.5332C189.529 30.7051 189.055 31.7305 188.422 32.6094C187.801 33.4766 187.033 34.1504 186.119 34.6309C185.205 35.1113 184.15 35.3516 182.955 35.3516C181.771 35.3516 180.734 35.1348 179.844 34.7012C178.965 34.2559 178.221 33.6289 177.611 32.8203C177.002 32.0117 176.51 31.0625 176.135 29.9727C175.771 28.8711 175.514 27.6641 175.361 26.3516V24.9277C175.514 23.5332 175.771 22.2676 176.135 21.1309C176.51 19.9941 177.002 19.0156 177.611 18.1953C178.221 17.375 178.965 16.7422 179.844 16.2969C180.723 15.8516 181.748 15.6289 182.92 15.6289C184.115 15.6289 185.176 15.8633 186.102 16.332C187.027 16.7891 187.807 17.4453 188.439 18.3008C189.072 19.1445 189.547 20.1641 189.863 21.3594C190.18 22.543 190.338 23.8613 190.338 25.3145ZM186.102 25.6836V25.3145C186.102 24.4355 186.02 23.6211 185.855 22.8711C185.691 22.1094 185.434 21.4414 185.082 20.8672C184.73 20.293 184.279 19.8477 183.729 19.5312C183.189 19.2031 182.539 19.0391 181.777 19.0391C181.027 19.0391 180.383 19.168 179.844 19.4258C179.305 19.6719 178.854 20.0176 178.49 20.4629C178.127 20.9082 177.846 21.4297 177.646 22.0273C177.447 22.6133 177.307 23.252 177.225 23.9434V27.3535C177.365 28.1973 177.605 28.9707 177.945 29.6738C178.285 30.377 178.766 30.9395 179.387 31.3613C180.02 31.7715 180.828 31.9766 181.812 31.9766C182.574 31.9766 183.225 31.8125 183.764 31.4844C184.303 31.1562 184.742 30.7051 185.082 30.1309C185.434 29.5449 185.691 28.8711 185.855 28.1094C186.02 27.3477 186.102 26.5391 186.102 25.6836ZM198.195 19.6016V35H193.959V15.9805H198.002L198.195 19.6016ZM204.014 15.8574L203.979 19.7949C203.721 19.748 203.439 19.7129 203.135 19.6895C202.842 19.666 202.549 19.6543 202.256 19.6543C201.529 19.6543 200.891 19.7598 200.34 19.9707C199.789 20.1699 199.326 20.4629 198.951 20.8496C198.588 21.2246 198.307 21.6816 198.107 22.2207C197.908 22.7598 197.791 23.3633 197.756 24.0312L196.789 24.1016C196.789 22.9062 196.906 21.7988 197.141 20.7793C197.375 19.7598 197.727 18.8633 198.195 18.0898C198.676 17.3164 199.273 16.7129 199.988 16.2793C200.715 15.8457 201.553 15.6289 202.502 15.6289C202.76 15.6289 203.035 15.6523 203.328 15.6992C203.633 15.7461 203.861 15.7988 204.014 15.8574ZM211.203 15.9805V35H206.949V15.9805H211.203ZM206.668 10.9883C206.668 10.3437 206.879 9.81055 207.301 9.38867C207.734 8.95508 208.332 8.73828 209.094 8.73828C209.844 8.73828 210.436 8.95508 210.869 9.38867C211.303 9.81055 211.52 10.3437 211.52 10.9883C211.52 11.6211 211.303 12.1484 210.869 12.5703C210.436 12.9922 209.844 13.2031 209.094 13.2031C208.332 13.2031 207.734 12.9922 207.301 12.5703C206.879 12.1484 206.668 11.6211 206.668 10.9883ZM220.045 20.041V35H215.809V15.9805H219.799L220.045 20.041ZM219.289 24.7871L217.918 24.7695C217.93 23.4219 218.117 22.1855 218.48 21.0605C218.855 19.9355 219.371 18.9688 220.027 18.1602C220.695 17.3516 221.492 16.7305 222.418 16.2969C223.344 15.8516 224.375 15.6289 225.512 15.6289C226.426 15.6289 227.252 15.7578 227.99 16.0156C228.74 16.2617 229.379 16.666 229.906 17.2285C230.445 17.791 230.855 18.5234 231.137 19.4258C231.418 20.3164 231.559 21.4121 231.559 22.7129V35H227.305V22.6953C227.305 21.7812 227.17 21.0605 226.9 20.5332C226.643 19.9941 226.262 19.6133 225.758 19.3906C225.266 19.1562 224.65 19.0391 223.912 19.0391C223.186 19.0391 222.535 19.1914 221.961 19.4961C221.387 19.8008 220.9 20.2168 220.502 20.7441C220.115 21.2715 219.816 21.8809 219.605 22.5723C219.395 23.2637 219.289 24.002 219.289 24.7871ZM244.602 15.9805V19.0742H233.879V15.9805H244.602ZM236.973 11.3223H241.209V29.7441C241.209 30.3301 241.291 30.7812 241.455 31.0977C241.631 31.4023 241.871 31.6074 242.176 31.7129C242.48 31.8184 242.838 31.8711 243.248 31.8711C243.541 31.8711 243.822 31.8535 244.092 31.8184C244.361 31.7832 244.578 31.748 244.742 31.7129L244.76 34.9473C244.408 35.0527 243.998 35.1465 243.529 35.2285C243.072 35.3105 242.545 35.3516 241.947 35.3516C240.975 35.3516 240.113 35.1816 239.363 34.8418C238.613 34.4902 238.027 33.9219 237.605 33.1367C237.184 32.3516 236.973 31.3086 236.973 30.0078V11.3223Z" fill="white"/>
<path d="M16.5013 1.32516L4.00126 8.32516C0.80126 10.1172 2.66793 11.7385 4.00126 12.3251L18.0013 19.8251C20.0013 21.8251 22.1679 20.6585 23.0013 19.8251L35.5013 12.3251C40.3013 10.3251 37.5013 8.15847 35.5013 7.32513L24.0013 1.32516C21.6013 -1.07484 18.0013 0.325164 16.5013 1.32516Z" fill="white"/>
<path d="M7 40.8252L0 37.3252V14.8252L7 17.8252V40.8252Z" fill="white"/>
<path d="M17 45.8252L10 42.3252V19.8252L17 22.8252V45.8252Z" fill="white"/>
<path d="M40 13L23 23V34L40 24V13Z" fill="white"/>
<path d="M23 46V36.5L41.5 25.5V35L23 46Z" fill="white"/>
</svg>
